<svg xmlns="http://www.w3.org/2000/svg" width="1050" height="272" viewBox="0 0 1050 272" role="img" aria-label="Pipeline: operational data, formulation, exact MILP or heuristics, bounds and gap, decision, automation, feedback">
<rect width="1050" height="272" fill="#0D1117"/>
<line x1="726" y1="124" x2="745" y2="124" stroke="#484F58" stroke-width="2"/>
<polygon points="754,124 746,119.4 746,128.6" fill="#484F58"/>
<line x1="854" y1="124" x2="873" y2="124" stroke="#484F58" stroke-width="2"/>
<polygon points="882,124 874,119.4 874,128.6" fill="#484F58"/>
<line x1="168" y1="124" x2="187" y2="124" stroke="#484F58" stroke-width="2"/>
<polygon points="196,124 188,119.4 188,128.6" fill="#484F58"/>
<line x1="346" y1="124" x2="361" y2="124" stroke="#484F58" stroke-width="2"/>
<line x1="561" y1="124" x2="567" y2="124" stroke="#484F58" stroke-width="2"/>
<polygon points="576,124 568,119.4 568,128.6" fill="#484F58"/>
<path d="M 361 124 V 81 H 367" fill="none" stroke="#484F58" stroke-width="2"/>
<polygon points="376,81.0 368,76.4 368,85.6" fill="#484F58"/>
<path d="M 546 81 H 561 V 124" fill="none" stroke="#484F58" stroke-width="2"/>
<path d="M 361 124 V 169 H 367" fill="none" stroke="#484F58" stroke-width="2"/>
<polygon points="376,169.0 368,164.4 368,173.6" fill="#484F58"/>
<path d="M 546 169 H 561 V 124" fill="none" stroke="#484F58" stroke-width="2"/>
<text x="378" y="44" font-family="ui-sans-serif,-apple-system,BlinkMacSystemFont,'Segoe UI',Helvetica,Arial,sans-serif" font-size="12" font-weight="600" fill="#8B949E">tractable exactly</text>
<text x="378" y="214" font-family="ui-sans-serif,-apple-system,BlinkMacSystemFont,'Segoe UI',Helvetica,Arial,sans-serif" font-size="12" font-weight="600" fill="#8B949E">too large, or decided online</text>
<path d="M 957 151 V 238 H 93 V 160" fill="none" stroke="#484F58" stroke-width="2" stroke-dasharray="6 5"/>
<polygon points="93,151 88,160 98,160" fill="#484F58"/>
<rect x="421" y="227" width="208" height="22" fill="#0D1117"/>
<text x="525" y="242" text-anchor="middle" font-family="ui-sans-serif,-apple-system,BlinkMacSystemFont,'Segoe UI',Helvetica,Arial,sans-serif" font-size="12" font-weight="600" fill="#8B949E">what actually happened</text>
<rect x="18" y="97.0" width="150" height="54" rx="9" fill="#475569"/>
<text x="93" y="121" text-anchor="middle" font-family="ui-sans-serif,-apple-system,BlinkMacSystemFont,'Segoe UI',Helvetica,Arial,sans-serif" font-size="16" font-weight="650" fill="#FFFFFF">Operational data</text>
<text x="93" y="139" text-anchor="middle" font-family="ui-sans-serif,-apple-system,BlinkMacSystemFont,'Segoe UI',Helvetica,Arial,sans-serif" font-size="11.5" fill="#FFFFFF" fill-opacity="0.80">documents · systems</text>
<rect x="196" y="97.0" width="150" height="54" rx="9" fill="#BF8700"/>
<text x="271" y="121" text-anchor="middle" font-family="ui-sans-serif,-apple-system,BlinkMacSystemFont,'Segoe UI',Helvetica,Arial,sans-serif" font-size="16" font-weight="650" fill="#FFFFFF">Formulation</text>
<text x="271" y="139" text-anchor="middle" font-family="ui-sans-serif,-apple-system,BlinkMacSystemFont,'Segoe UI',Helvetica,Arial,sans-serif" font-size="11.5" fill="#FFFFFF" fill-opacity="0.80">variables · constraints</text>
<rect x="576" y="97.0" width="150" height="54" rx="9" fill="#1F883D"/>
<text x="651" y="121" text-anchor="middle" font-family="ui-sans-serif,-apple-system,BlinkMacSystemFont,'Segoe UI',Helvetica,Arial,sans-serif" font-size="16" font-weight="650" fill="#FFFFFF">Bounds and gap</text>
<text x="651" y="139" text-anchor="middle" font-family="ui-sans-serif,-apple-system,BlinkMacSystemFont,'Segoe UI',Helvetica,Arial,sans-serif" font-size="11.5" fill="#FFFFFF" fill-opacity="0.80">sensitivity · robustness</text>
<rect x="754" y="97.0" width="100" height="54" rx="9" fill="#8250DF"/>
<text x="804" y="129" text-anchor="middle" font-family="ui-sans-serif,-apple-system,BlinkMacSystemFont,'Segoe UI',Helvetica,Arial,sans-serif" font-size="16" font-weight="650" fill="#FFFFFF">Decision</text>
<rect x="882" y="97.0" width="150" height="54" rx="9" fill="#8250DF"/>
<text x="957" y="121" text-anchor="middle" font-family="ui-sans-serif,-apple-system,BlinkMacSystemFont,'Segoe UI',Helvetica,Arial,sans-serif" font-size="16" font-weight="650" fill="#FFFFFF">Automation</text>
<text x="957" y="139" text-anchor="middle" font-family="ui-sans-serif,-apple-system,BlinkMacSystemFont,'Segoe UI',Helvetica,Arial,sans-serif" font-size="11.5" fill="#FFFFFF" fill-opacity="0.80">where the decision runs</text>
<rect x="376" y="54" width="170" height="54" rx="9" fill="#0969DA"/>
<text x="461" y="78" text-anchor="middle" font-family="ui-sans-serif,-apple-system,BlinkMacSystemFont,'Segoe UI',Helvetica,Arial,sans-serif" font-size="16" font-weight="650" fill="#FFFFFF">Exact MILP</text>
<text x="461" y="96" text-anchor="middle" font-family="ui-sans-serif,-apple-system,BlinkMacSystemFont,'Segoe UI',Helvetica,Arial,sans-serif" font-size="11.5" fill="#FFFFFF" fill-opacity="0.80">Gurobi · CBC · PuLP</text>
<rect x="376" y="142" width="170" height="54" rx="9" fill="#0969DA"/>
<text x="461" y="166" text-anchor="middle" font-family="ui-sans-serif,-apple-system,BlinkMacSystemFont,'Segoe UI',Helvetica,Arial,sans-serif" font-size="16" font-weight="650" fill="#FFFFFF">Heuristics</text>
<text x="461" y="184" text-anchor="middle" font-family="ui-sans-serif,-apple-system,BlinkMacSystemFont,'Segoe UI',Helvetica,Arial,sans-serif" font-size="11.5" fill="#FFFFFF" fill-opacity="0.80">construction + local search</text>
</svg>